<?xml version="1.0" encoding="utf-8"?>
<!-- Generator: Adobe Illustrator 20.1.0, SVG Export Plug-In . SVG Version: 6.00 Build 0)  -->
<svg version="1.1" id="Layer_1" xmlns="http://www.w3.org/2000/svg" xmlns:xlink="http://www.w3.org/1999/xlink" x="0px" y="0px"
	 viewBox="0 0 365.1 365.1" style="enable-background:new 0 0 365.1 365.1;" xml:space="preserve">
<style type="text/css">
	.st0{fill:#99E6FF;}
	.st1{fill:none;stroke:#99E6FF;stroke-width:8;stroke-miterlimit:10;}
</style>
<ellipse transform="matrix(0.7071 -0.7071 0.7071 0.7071 -26.6439 64.3242)" class="st0" cx="64.3" cy="64.3" rx="11.3" ry="11.3"/>
<ellipse transform="matrix(0.7071 -0.7071 0.7071 0.7071 42.6237 133.5918)" class="st1" cx="182.6" cy="15.3" rx="11.3" ry="11.3"/>
<ellipse transform="matrix(0.7071 -0.7071 0.7071 0.7071 -193.8708 231.5511)" class="st1" cx="182.6" cy="349.8" rx="11.3" ry="11.3"/>
<ellipse transform="matrix(0.7071 -0.7071 0.7071 0.7071 -26.6439 300.8187)" class="st1" cx="349.8" cy="182.6" rx="11.3" ry="11.3"/>
<ellipse transform="matrix(0.7071 -0.7071 0.7071 0.7071 -124.6032 64.3242)" class="st1" cx="15.3" cy="182.6" rx="11.3" ry="11.3"/>
<ellipse transform="matrix(0.7071 -0.7071 0.7071 0.7071 -124.6032 300.8187)" class="st0" cx="300.8" cy="300.8" rx="11.3" ry="11.3"/>
<ellipse transform="matrix(0.7071 -0.7071 0.7071 0.7071 42.6237 231.5511)" class="st0" cx="300.8" cy="64.3" rx="11.3" ry="11.3"/>
<ellipse transform="matrix(0.7071 -0.7071 0.7071 0.7071 -193.8708 133.5918)" class="st0" cx="64.3" cy="300.8" rx="11.3" ry="11.3"/>
</svg>
